<svg width="177" height="179" viewBox="0 0 177 179" fill="none" xmlns="http://www.w3.org/2000/svg">
<g clip-path="url(#clip0)">
<path d="M89.1 172.4C136.707 172.4 175.3 133.807 175.3 86.2C175.3 38.5931 136.707 0 89.1 0C41.493 0 2.89999 38.5931 2.89999 86.2C2.89999 133.807 41.493 172.4 89.1 172.4Z" fill="white"/>
<path d="M112.7 118.8C112.7 117.2 113 115.6 110.6 114.8C107.7 113.8 95.5 111.9 86.8 111.9C78.1 111.9 65.8 113.8 63 114.8C60.6 115.7 60.9 117.3 60.9 118.8V129.8C60.9 131.4 60.6 133 63 133.8C65.9 134.8 78.1 136.7 86.8 136.7C95.5 136.7 107.8 134.8 110.6 133.8C113 132.9 112.7 131.3 112.7 129.8V118.8Z" fill="#E07070"/>
<path d="M148.542 15.3547L144.916 28.4623L163.614 33.6344L167.24 20.5267L148.542 15.3547Z" fill="white"/>
<path d="M164.2 31.6L163.6 33.6L161.6 33.1" stroke="#EAEAEA" stroke-width="2.6116" stroke-linecap="round" stroke-linejoin="round"/>
<path d="M156.7 31.7L149.4 29.7" stroke="#EAEAEA" stroke-width="2.6116" stroke-linecap="round" stroke-linejoin="round" stroke-dasharray="5.08 5.08"/>
<path d="M146.9 29L144.9 28.5L145.5 26.5" stroke="#EAEAEA" stroke-width="2.6116" stroke-linecap="round" stroke-linejoin="round"/>
<path d="M146.3 23.4L147.6 18.9" stroke="#EAEAEA" stroke-width="2.6116" stroke-linecap="round" stroke-linejoin="round" stroke-dasharray="3.14 3.14"/>
<path d="M148 17.4L148.5 15.4L150.6 15.9" stroke="#EAEAEA" stroke-width="2.6116" stroke-linecap="round" stroke-linejoin="round"/>
<path d="M155.5 17.3L162.8 19.3" stroke="#EAEAEA" stroke-width="2.6116" stroke-linecap="round" stroke-linejoin="round" stroke-dasharray="5.08 5.08"/>
<path d="M165.2 20L167.3 20.5L166.7 22.6" stroke="#EAEAEA" stroke-width="2.6116" stroke-linecap="round" stroke-linejoin="round"/>
<path d="M165.9 25.6L164.6 30.1" stroke="#EAEAEA" stroke-width="2.6116" stroke-linecap="round" stroke-linejoin="round" stroke-dasharray="3.14 3.14"/>
<path d="M146.7 112.3L118.8 104.6C116.9 104.1 115.9 102.2 116.4 100.3L133.5 38.5C135.6 31 143.4 26.5 150.9 28.6L158.2 30.6C165.7 32.7 170.2 40.5 168.1 48L151 109.8C150.5 111.7 148.5 112.8 146.7 112.3Z" fill="white" stroke="#EAEAEA" stroke-width="2.6116" stroke-miterlimit="10" stroke-linecap="round" stroke-linejoin="round" stroke-dasharray="4.18 4.18"/>
<path d="M166.651 53.2207L132.05 43.6497L125.652 66.7809L160.252 76.3519L166.651 53.2207Z" fill="white" stroke="#EAEAEA" stroke-width="2.6116" stroke-miterlimit="10" stroke-linecap="round" stroke-linejoin="round" stroke-dasharray="4.18 4.18"/>
<path d="M101.9 36.8H56.7L58.9 102.9H101.9C114.9 61.7 101.9 36.8 101.9 36.8Z" fill="white" stroke="#EAEAEA" stroke-width="2.6116" stroke-miterlimit="10" stroke-linecap="round" stroke-linejoin="round" stroke-dasharray="4.18 4.18"/>
<path d="M44.4 36.8V25H101.9V36.8" fill="white"/>
<path d="M44.4 36.8V34.7" stroke="#EAEAEA" stroke-width="2.6116" stroke-linecap="round" stroke-linejoin="round"/>
<path d="M44.4 32.2V28.4" stroke="#EAEAEA" stroke-width="2.6116" stroke-linecap="round" stroke-linejoin="round" stroke-dasharray="2.54 2.54"/>
<path d="M44.4 27.1V25H46.5" stroke="#EAEAEA" stroke-width="2.6116" stroke-linecap="round" stroke-linejoin="round"/>
<path d="M50.6 25H97.8" stroke="#EAEAEA" stroke-width="2.6116" stroke-linecap="round" stroke-linejoin="round" stroke-dasharray="4.1 4.1"/>
<path d="M99.8 25H101.9V27.1" stroke="#EAEAEA" stroke-width="2.6116" stroke-linecap="round" stroke-linejoin="round"/>
<path d="M101.9 29.7V33.5" stroke="#EAEAEA" stroke-width="2.6116" stroke-linecap="round" stroke-linejoin="round" stroke-dasharray="2.54 2.54"/>
<path d="M101.9 34.7V36.8" stroke="#EAEAEA" stroke-width="2.6116" stroke-linecap="round" stroke-linejoin="round"/>
<path d="M44.4 36.8C25 69.7 44.4 102.9 44.4 102.9H101.9C101.9 102.9 85.2 66 101.9 36.8H44.4Z" fill="white"/>
<path d="M46.5 36.8H44.4C44 37.4 43.7 38 43.4 38.6" stroke="#EAEAEA" stroke-width="2.6116" stroke-linecap="round" stroke-linejoin="round"/>
<path d="M40.8 44C30.8 67.2 38.1 89.3 42.2 98.5" stroke="#EAEAEA" stroke-width="2.6116" stroke-linecap="round" stroke-linejoin="round" stroke-dasharray="3.93 3.93"/>
<path d="M43.4 101.1C44 102.3 44.4 102.9 44.4 102.9H46.5" stroke="#EAEAEA" stroke-width="2.6116" stroke-linecap="round" stroke-linejoin="round"/>
<path d="M52.2 103H97" stroke="#EAEAEA" stroke-width="2.6116" stroke-linecap="round" stroke-linejoin="round" stroke-dasharray="3.81 3.81"/>
<path d="M99.8 103H101.9C101.9 103 101.6 102.3 101.1 101.1" stroke="#EAEAEA" stroke-width="2.6116" stroke-linecap="round" stroke-linejoin="round"/>
<path d="M99.2 95.5C95.6 84.1 90.6 61.5 99.7 41.3" stroke="#EAEAEA" stroke-width="2.6116" stroke-linecap="round" stroke-linejoin="round" stroke-dasharray="3.89 3.89"/>
<path d="M100.9 38.7C101.2 38.1 101.6 37.5 101.9 36.9H99.8" stroke="#EAEAEA" stroke-width="2.6116" stroke-linecap="round" stroke-linejoin="round"/>
<path d="M94.1 36.8H49.3" stroke="#EAEAEA" stroke-width="2.6116" stroke-linecap="round" stroke-linejoin="round" stroke-dasharray="3.81 3.81"/>
<path d="M65.6 87.5C75.3202 87.5 83.2 79.6202 83.2 69.9C83.2 60.1798 75.3202 52.3 65.6 52.3C55.8798 52.3 48 60.1798 48 69.9C48 79.6202 55.8798 87.5 65.6 87.5Z" fill="white" stroke="#EAEAEA" stroke-width="2.6116" stroke-miterlimit="10" stroke-linecap="round" stroke-linejoin="round" stroke-dasharray="4.18 4.18"/>
<path d="M29.0709 34.0069L2.57074 43.9374L36.3975 134.206L62.8976 124.276L29.0709 34.0069Z" fill="white"/>
<path d="M4.49998 43.2L2.59998 44L3.29998 45.9" stroke="#EAEAEA" stroke-width="2.6116" stroke-linecap="round" stroke-linejoin="round"/>
<path d="M4.69998 49.7L35 130.4" stroke="#EAEAEA" stroke-width="2.6116" stroke-linecap="round" stroke-linejoin="round" stroke-dasharray="4.01 4.01"/>
<path d="M35.7 132.3L36.4 134.3L38.4 133.5" stroke="#EAEAEA" stroke-width="2.6116" stroke-linecap="round" stroke-linejoin="round"/>
<path d="M42.9 131.8L58.7 125.9" stroke="#EAEAEA" stroke-width="2.6116" stroke-linecap="round" stroke-linejoin="round" stroke-dasharray="4.83 4.83"/>
<path d="M61 125.1L62.9 124.3L62.2 122.4" stroke="#EAEAEA" stroke-width="2.6116" stroke-linecap="round" stroke-linejoin="round"/>
<path d="M60.8 118.6L30.5 37.9" stroke="#EAEAEA" stroke-width="2.6116" stroke-linecap="round" stroke-linejoin="round" stroke-dasharray="4.01 4.01"/>
<path d="M29.8 36L29.1 34L27.1 34.8" stroke="#EAEAEA" stroke-width="2.6116" stroke-linecap="round" stroke-linejoin="round"/>
<path d="M22.6 36.4L6.79999 42.4" stroke="#EAEAEA" stroke-width="2.6116" stroke-linecap="round" stroke-linejoin="round" stroke-dasharray="4.83 4.83"/>
<path d="M25.3557 44.7542L12.4334 49.5967L19.8725 69.4483L32.7948 64.6059L25.3557 44.7542Z" fill="white"/>
<path d="M23.9 45.2L25.4 44.7L25.9 46.2" stroke="#EAEAEA" stroke-width="2.6116" stroke-linecap="round" stroke-linejoin="round"/>
<path d="M27.3 49.9L31.6 61.2" stroke="#EAEAEA" stroke-width="2.6116" stroke-linecap="round" stroke-linejoin="round" stroke-dasharray="3.01 3.01"/>
<path d="M32.3 63.1L32.8 64.6L31.3 65.1" stroke="#EAEAEA" stroke-width="2.6116" stroke-linecap="round" stroke-linejoin="round"/>
<path d="M27.7 66.5L23.1 68.2" stroke="#EAEAEA" stroke-width="2.6116" stroke-linecap="round" stroke-linejoin="round" stroke-dasharray="2.92 2.92"/>
<path d="M21.3 68.9L19.9 69.4L19.3 67.9" stroke="#EAEAEA" stroke-width="2.6116" stroke-linecap="round" stroke-linejoin="round"/>
<path d="M17.9 64.2L13.7 52.9" stroke="#EAEAEA" stroke-width="2.6116" stroke-linecap="round" stroke-linejoin="round" stroke-dasharray="3.01 3.01"/>
<path d="M13 51L12.4 49.6L13.9 49" stroke="#EAEAEA" stroke-width="2.6116" stroke-linecap="round" stroke-linejoin="round"/>
<path d="M17.5 47.6L22.1 45.9" stroke="#EAEAEA" stroke-width="2.6116" stroke-linecap="round" stroke-linejoin="round" stroke-dasharray="2.92 2.92"/>
<path d="M124.6 98.2C137.7 106.7 148.9 83.1 147.6 69.3C146.4 55.5 132.6 55.1 124.6 57.9C116.5 55.1 102.8 55.5 101.6 69.3C100.4 83.1 111.5 106.7 124.6 98.2Z" fill="white"/>
<path d="M122.8 99.2C123.4 98.9 124 98.6 124.6 98.2C125.2 98.6 125.8 98.9 126.4 99.2" stroke="#EAEAEA" stroke-width="2.6116" stroke-linecap="round" stroke-linejoin="round"/>
<path d="M130.5 100C140.9 99.7 148.7 81 147.7 69.3C146.5 55.5 132.7 55.1 124.7 57.9C116.6 55.1 102.9 55.5 101.7 69.3C100.6 81.7 109.5 102.1 120.9 99.8" stroke="#EAEAEA" stroke-width="2.6116" stroke-linecap="round" stroke-linejoin="round" stroke-dasharray="4.14 4.14"/>
<path d="M145.5 42.9C145.5 42.9 127.6 40.1 124.4 57.8C124.4 57.9 142.6 62.8 145.5 42.9Z" fill="white" stroke="#EAEAEA" stroke-width="2.6116" stroke-miterlimit="10" stroke-linecap="round" stroke-linejoin="round" stroke-dasharray="4.18 4.18"/>
<path d="M139.4 176.3H38.9C32 176.3 26.1 171 25.2 163.9L18.2 111H160L153.1 163.9C152.1 171 146.3 176.3 139.4 176.3Z" fill="#EAEAEA" stroke="#C6C6C5" stroke-width="5.2232" stroke-miterlimit="10" stroke-linecap="round" stroke-linejoin="round"/>
<path d="M121.8 34L116.6 31.5C114.3 30.4 111.5 31.4 110.4 33.7L81.1 95.5L94.7 101.9L124 40.2C125.1 37.8 124.1 35.1 121.8 34Z" fill="#EAEAEA" stroke="#C6C6C5" stroke-width="5.2232" stroke-miterlimit="10" stroke-linecap="round" stroke-linejoin="round"/>
<path d="M166.4 92.8H11.8L13.5 107.9C13.7 109.8 15.4 111.3 17.3 111.3H160.8C162.7 111.3 164.4 109.8 164.6 107.9L166.4 92.8Z" fill="#EAEAEA" stroke="#C6C6C5" stroke-width="5.2232" stroke-miterlimit="10" stroke-linecap="round" stroke-linejoin="round"/>
<path d="M89.1 106C91.3091 106 93.1 104.209 93.1 102C93.1 99.7909 91.3091 98 89.1 98C86.8908 98 85.1 99.7909 85.1 102C85.1 104.209 86.8908 106 89.1 106Z" fill="white"/>
<path d="M89.7 167.1H89C87.5 167.1 86.3 165.9 86.3 164.4V151.2C86.3 149.7 87.5 148.5 89 148.5H89.7C91.2 148.5 92.4 149.7 92.4 151.2V164.4C92.4 165.9 91.2 167.1 89.7 167.1Z" fill="white"/>
<path d="M106 167.1L105.3 167C103.8 166.9 102.7 165.6 102.9 164.1L103.9 150.9C104 149.4 105.3 148.3 106.8 148.5L107.5 148.6C109 148.7 110.1 150 109.9 151.5L108.9 164.7C108.7 166.1 107.4 167.2 106 167.1Z" fill="white"/>
<path d="M122.2 167L121.5 166.9C120 166.7 119 165.4 119.2 163.9L121 150.8C121.2 149.3 122.5 148.3 124 148.5L124.7 148.6C126.2 148.8 127.2 150.1 127 151.6L125.2 164.7C125 166.2 123.6 167.2 122.2 167Z" fill="white"/>
<path d="M138.7 167L138 166.9C136.5 166.7 135.5 165.4 135.7 163.9L137.5 150.8C137.7 149.3 139 148.3 140.5 148.5L141.2 148.6C142.7 148.8 143.7 150.1 143.5 151.6L141.7 164.7C141.5 166.2 140.1 167.2 138.7 167Z" fill="white"/>
<path d="M72.8 167.1L73.5 167C75 166.9 76.1 165.6 75.9 164.1L74.9 150.9C74.8 149.4 73.5 148.3 72 148.5L71.3 148.6C69.8 148.7 68.7 150 68.9 151.5L69.9 164.7C70 166.1 71.3 167.2 72.8 167.1Z" fill="white"/>
<path d="M89.7 142H89C87.5 142 86.3 140.8 86.3 139.3V126.1C86.3 124.6 87.5 123.4 89 123.4H89.7C91.2 123.4 92.4 124.6 92.4 126.1V139.3C92.4 140.8 91.2 142 89.7 142Z" fill="white"/>
<path d="M108.6 142L107.9 141.9C106.4 141.8 105.3 140.5 105.5 139L106.5 125.8C106.6 124.3 107.9 123.2 109.4 123.4L110.1 123.5C111.6 123.6 112.7 124.9 112.5 126.4L111.5 139.6C111.3 141 110 142.1 108.6 142Z" fill="white"/>
<path d="M70.7 142L71.4 141.9C72.9 141.8 74 140.5 73.8 139L72.8 125.8C72.7 124.3 71.4 123.2 69.9 123.4L69.2 123.5C67.7 123.6 66.6 124.9 66.8 126.4L67.8 139.6C67.9 141 69.2 142.1 70.7 142Z" fill="white"/>
<path d="M56.6 167L57.3 166.9C58.8 166.7 59.8 165.4 59.6 163.9L57.8 150.8C57.6 149.3 56.3 148.3 54.8 148.5L54.1 148.6C52.6 148.8 51.6 150.1 51.8 151.6L53.6 164.7C53.8 166.2 55.1 167.2 56.6 167Z" fill="white"/>
<path d="M40.1 167L40.8 166.9C42.3 166.7 43.3 165.4 43.1 163.9L41.3 150.8C41.1 149.3 39.8 148.3 38.3 148.5L37.6 148.6C36.1 148.8 35.1 150.1 35.3 151.6L37.1 164.7C37.3 166.2 38.6 167.2 40.1 167Z" fill="white"/>
<path d="M126 142.1L125.3 142C123.8 141.8 122.8 140.5 123 139L124.8 125.9C125 124.4 126.3 123.4 127.8 123.6L128.5 123.7C130 123.9 131 125.2 130.8 126.7L129 139.8C128.8 141.3 127.5 142.3 126 142.1Z" fill="white"/>
<path d="M142.5 142.1L141.8 142C140.3 141.8 139.3 140.5 139.5 139L141.3 125.9C141.5 124.4 142.8 123.4 144.3 123.6L145 123.7C146.5 123.9 147.5 125.2 147.3 126.7L145.5 139.8C145.3 141.3 144 142.3 142.5 142.1Z" fill="white"/>
<path d="M52.7 142.1L53.4 142C54.9 141.8 55.9 140.5 55.7 139L53.9 125.9C53.7 124.4 52.4 123.4 50.9 123.6L50.2 123.7C48.7 123.9 47.7 125.2 47.9 126.7L49.7 139.8C49.9 141.3 51.3 142.3 52.7 142.1Z" fill="white"/>
<path d="M36.2 142.1L36.9 142C38.4 141.8 39.4 140.5 39.2 139L37.4 125.9C37.2 124.4 35.9 123.4 34.4 123.6L33.7 123.7C32.2 123.9 31.2 125.2 31.4 126.7L33.2 139.8C33.4 141.3 34.8 142.3 36.2 142.1Z" fill="white"/>
</g>
<defs>
<clipPath id="clip0">
<rect width="176.1" height="178.9" fill="white"/>
</clipPath>
</defs>
</svg>
